<?xml version="1.0" encoding="UTF-8"?>
<svg width="83px" height="89px" viewBox="0 0 83 89" version="1.1" xmlns="http://www.w3.org/2000/svg" xmlns:xlink="http://www.w3.org/1999/xlink">
    <!-- Generator: sketchtool 54.1 (76490) - https://sketchapp.com -->
    <title>DCD875E8-FFEB-4D0D-A30C-314B0819ED8A@1x</title>
    <desc>Created with sketchtool.</desc>
    <defs>
        <polygon id="path-1" points="0 89 83 89 83 0 0 0"></polygon>
    </defs>
    <g id="Page-1" stroke="none" stroke-width="1" fill="none" fill-rule="evenodd">
        <g id="Resources-" transform="translate(-672.000000, -642.000000)">
            <g id="Group-5" transform="translate(541.000000, 600.000000)">
                <g id="ico/bnlog" transform="translate(131.000000, 42.000000)">
                    <path d="M75.5772358,33.0378788 C78.9311443,33.0378788 81.6504065,30.3208504 81.6504065,26.969697 C81.6504065,30.3208504 78.9311443,33.0378788 75.5772358,33.0378788" id="Fill-1" fill="#BDDBFF"></path>
                    <path d="M69.7289973,27.0215618 L69.7289973,19.5011655 C69.7289973,16.1786544 67.1104485,13.4848485 63.8807588,13.4848485 C60.6510691,13.4848485 58.0325203,16.1786544 58.0325203,19.5011655 L58.0325203,33.0378788 L75.5772358,33.0378788 C72.3475461,33.0378788 69.7289973,30.3440728 69.7289973,27.0215618" id="Fill-3" fill="#D39BE4"></path>
                    <mask id="mask-2" fill="white">
                        <use xlink:href="#path-1"></use>
                    </mask>
                    <g id="Clip-6"></g>
                    <polygon id="Fill-5" fill="#782A90" mask="url(#mask-2)" points="18.2195122 23.5984848 50.6097561 23.5984848 50.6097561 20.9015152 18.2195122 20.9015152"></polygon>
                    <polygon id="Fill-7" fill="#782A90" mask="url(#mask-2)" points="8.77235772 32.3636364 50.6097561 32.3636364 50.6097561 29.6666667 8.77235772 29.6666667"></polygon>
                    <polygon id="Fill-8" fill="#782A90" mask="url(#mask-2)" points="8.77235772 41.1287879 35.7642276 41.1287879 35.7642276 38.4318182 8.77235772 38.4318182"></polygon>
                    <polygon id="Fill-9" fill="#782A90" mask="url(#mask-2)" points="8.77235772 23.5984848 14.8455285 23.5984848 14.8455285 20.9015152 8.77235772 20.9015152"></polygon>
                    <polygon id="Fill-10" fill="#782A90" mask="url(#mask-2)" points="8.77235772 50.5681818 11.4715447 50.5681818 11.4715447 47.8712121 8.77235772 47.8712121"></polygon>
                    <polygon id="Fill-11" fill="#782A90" mask="url(#mask-2)" points="14.8455285 50.5681818 32.3902439 50.5681818 32.3902439 47.8712121 14.8455285 47.8712121"></polygon>
                    <polygon id="Fill-12" fill="#782A90" mask="url(#mask-2)" points="8.77235772 59.3333333 49.9349593 59.3333333 49.9349593 56.6363636 8.77235772 56.6363636"></polygon>
                    <polygon id="Fill-13" fill="#782A90" mask="url(#mask-2)" points="8.77235772 77.5378788 49.9349593 77.5378788 49.9349593 74.8409091 8.77235772 74.8409091"></polygon>
                    <polygon id="Fill-14" fill="#782A90" mask="url(#mask-2)" points="8.77235772 68.7727273 11.4715447 68.7727273 11.4715447 66.0757576 8.77235772 66.0757576"></polygon>
                    <polygon id="Fill-15" fill="#782A90" mask="url(#mask-2)" points="14.8455285 68.7727273 49.9349593 68.7727273 49.9349593 66.0757576 14.8455285 66.0757576"></polygon>
                    <path d="M14.8214286,2.96666667 L80.0357143,2.96666667 L80.0357143,26.7 C80.0357143,29.1575125 78.0448259,31.15 75.5892857,31.15 C73.1337455,31.15 71.1428571,29.1575125 71.1428571,26.7 L71.1428571,19.2833333 C71.1450804,17.3155062 70.3649174,15.4279646 68.9746674,14.0365979 C67.5844174,12.6452313 65.6983906,11.8644417 63.7321429,11.8666667 L14.8214286,11.8666667 L14.8214286,2.96666667 Z M59.2857143,31.15 L59.2857143,19.2833333 C59.2857143,16.8258208 61.2766027,14.8333333 63.7321429,14.8333333 C66.187683,14.8333333 68.1785714,16.8258208 68.1785714,19.2833333 L68.1785714,26.7 C68.1756071,28.3049667 68.6960246,29.8672875 69.6607143,31.15 L59.2857143,31.15 Z M56.3214286,85.5236229 L56.3214286,86.0333333 L2.96428571,86.0333333 L2.96428571,19.2833333 C2.96428571,16.8258208 4.95517411,14.8333333 7.41071429,14.8333333 L57.8419219,14.8333333 C56.8612991,16.1095562 56.3271719,17.673175 56.3214286,19.2833333 L56.3214286,85.4477875 L59.2857143,85.4477875 L59.2857143,34.1166667 L75.5892857,34.1166667 C79.6803705,34.1116604 82.9949978,30.7943708 83,26.7 L83,2.96666667 C83,1.328325 81.6727411,0 80.0357143,0 L14.8214286,0 C13.1844018,0 11.8571429,1.328325 11.8571429,2.96666667 L11.8571429,11.8666667 L7.41071429,11.8666667 C3.31962946,11.8716729 0.00500223214,15.1889625 0,19.2833333 L0,86.0333333 C0,87.671675 1.32725893,89 2.96428571,89 L56.3214286,89 C57.9584554,89 59.2857143,87.671675 59.2857143,86.0333333 L59.2857143,85.5236229 L56.3214286,85.5236229 Z" id="Fill-16" fill="#782A90" mask="url(#mask-2)"></path>
                </g>
            </g>
        </g>
    </g>
</svg>