
<svg width="54" height="54" viewBox="0 0 72 72" version="1.1" xmlns="http://www.w3.org/2000/svg">
    <g stroke="none" stroke-width="1" fill="none" fill-rule="evenodd">
        <g transform="translate(-284.000000, -2071.000000)" fill-rule="nonzero">
            <g transform="translate(284.000000, 2071.000000)">
                <path d="M49.2,1.2 L6,1.2 C3.34921875,1.2 1.2,3.34921875 1.2,6 L1.2,22.8 L43.4402343,22.8 L43.8117187,22.4279297 L44.3759766,22.8 L54,22.8 L54,6 C54,3.34921875 51.8507813,1.2 49.2,1.2 Z M49.2,16.8 C49.2,17.4626954 48.6626954,18 48,18 L7.2,18 C6.53730465,18 6,17.4626954 6,16.8 L6,7.2 C6,6.53730465 6.53730465,6 7.2,6 L48,6 C48.6626954,6 49.2,6.53730465 49.2,7.2 L49.2,16.8 Z" fill="#D39BE4"></path>
                <polygon fill="#D39BE4" points="34.8 46.8 34.8 63.6 20.4 63.6 20.4 46.8"></polygon>
                <path d="M20.4,46.8 L20.4,63.6 L7.2,63.6 C6.53730465,63.6 6,63.0626953 6,62.4 L6,46.8 L20.4,46.8 Z" fill="#D39BE4"></path>
                <polygon fill="#D39BE4" points="20.4 30 34.8 30 34.8 46.8 20.4 46.8"></polygon>
                <path d="M20.4,30 L20.4,46.8 L6,46.8 L6,31.2 C6,30.5373046 6.53730465,30 7.2,30 L20.4,30 Z" fill="#D39BE4"></path>
                <path d="M70.8,38.4 L70.8,33.6 L66.7921875,32.7960937 C66.4769532,31.5363282 65.9753907,30.3310546 65.3039063,29.2201172 L67.5720704,25.8117188 L64.1882813,22.4279296 L60.7798828,24.6960937 C59.6689454,24.0246093 58.4636718,23.5230468 57.2039063,23.2078125 L56.4,19.2 L51.6,19.2 L50.8798829,22.8 L50.7960938,23.2078125 C49.5363282,23.5230468 48.3310547,24.0246093 47.2201172,24.6960937 L44.3759766,22.8 L43.4402343,22.8 L40.4279297,25.8117188 L42.6960938,29.2201172 C42.5402343,29.4720703 42.3960938,29.7357422 42.2642579,30 C41.8101563,30.8900391 41.4556641,31.828125 41.2078125,32.7960937 L37.2,33.6 L37.2,38.4 L41.2078125,39.2039063 C41.5230468,40.4636718 42.0246093,41.6689454 42.6960938,42.7798828 L40.4279297,46.1882813 L43.8117188,49.5720703 L47.2201172,47.3039062 C47.8505859,47.6853516 48.5126954,48.0105468 49.2,48.2759766 C49.7214843,48.4787109 50.2546875,48.6509766 50.7960938,48.7921875 L51.6,52.8 L56.4,52.8 L57.2039063,48.7921875 C58.4636718,48.4769532 59.6689454,47.9753907 60.7798828,47.3039062 L64.1882813,49.5720703 L67.5720704,46.1882813 L65.3039063,42.7798828 C65.9753907,41.6689454 66.4769532,40.4636718 66.7921875,39.2039063 L70.8,38.4 Z M54,43.2 C50.0238282,43.2 46.8,39.9761718 46.8,36 C46.8,32.0238282 50.0238282,28.8 54,28.8 C57.9761718,28.8 61.2,32.0238282 61.2,36 C61.2,39.9761718 57.9761718,43.2 54,43.2 Z" fill="#D39BE4"></path>
                <g fill="#782A90">
                    <path d="M71.0402343,32.4240234 L67.7554688,31.7666016 C67.490625,30.9041016 67.1443359,30.0685546 66.7212891,29.2716796 L68.5798829,26.4826171 C68.896875,26.0068359 68.8341797,25.3740234 68.4298829,24.9697266 L65.0349609,21.5748047 C64.6306641,21.1710938 63.9978516,21.1078125 63.5220704,21.4248046 L60.7294921,23.2798828 C59.9314454,22.8585938 59.0958984,22.5128907 58.2333984,22.246875 L57.5759766,18.9597657 C57.4617188,18.4013671 56.9701172,18 56.4,18 L51.6,18 C51.0298829,18 50.5382812,18.4013671 50.4240234,18.9597657 L49.7666016,22.2445313 C48.9041016,22.5105468 48.0685546,22.85625 47.2705078,23.2775391 L44.4826171,21.4201171 C44.0068359,21.103125 43.3740234,21.1658204 42.9697266,21.5701172 L39.5748046,24.9650391 C39.1710937,25.3693359 39.1078125,26.0021484 39.4248046,26.4779297 L41.2798828,29.2716796 C40.8568359,30.0685546 40.5105468,30.9041016 40.2457032,31.7666016 L36.9597657,32.4240234 C36.4013671,32.5382812 36,33.0298828 36,33.6 L36,38.4 C36,38.9701171 36.4013671,39.4617187 36.9597657,39.5759766 L40.2445313,40.2333984 C40.509375,41.0958984 40.8556641,41.9314454 41.2787109,42.7283204 L39.4201171,45.5173829 C39.103125,45.9931641 39.1658203,46.6259766 39.5701171,47.0302734 L42.9650391,50.4251954 C43.3693359,50.8289062 44.0021484,50.8921875 44.4779296,50.5751954 L47.2705078,48.7201172 C48.0685546,49.1414063 48.9041016,49.4871093 49.7666016,49.753125 L50.4240234,53.0402343 C50.5382812,53.5986329 51.0298828,54 51.6,54 L56.4,54 C56.9701171,54 57.4617188,53.5986329 57.5759766,53.0402343 L58.2333984,49.7554688 C59.0958984,49.4894532 59.9314454,49.14375 60.7294921,48.7224609 L63.5173829,50.5798829 C63.9931641,50.896875 64.6259766,50.8341797 65.0302734,50.4298829 L68.4251953,47.0349609 C68.8289062,46.6306641 68.8921875,45.9978516 68.5751954,45.5220703 L66.7201172,42.7283204 C67.1431641,41.9314454 67.4894532,41.0958984 67.7542968,40.2333984 L71.0402343,39.5759766 C71.5986329,39.4617187 72,38.9701172 72,38.4 L72,33.6 C72,33.0298828 71.5986329,32.5382812 71.0402343,32.4240234 Z M69.6,37.4173829 L66.5566407,38.0255859 C66.1019532,38.1164062 65.7404296,38.4615234 65.6279296,38.9109375 C65.3431641,40.0564454 64.8890625,41.1521484 64.2802734,42.1634766 C64.0412109,42.5607421 64.0529296,43.0611328 64.3101563,43.4472657 L66.0322266,46.0283203 L64.0294921,48.0310546 L61.4472657,46.3113282 C61.0611328,46.0535157 60.5613282,46.0417968 60.1634766,46.2802734 C59.1521484,46.8878907 58.0558593,47.3419921 56.9109375,47.6267578 C56.4609375,47.7392578 56.1164062,48.1013671 56.0255859,48.5566407 L55.4162109,51.6 L52.5837891,51.6 L51.9744141,48.5566407 C51.8835937,48.1013671 51.5390625,47.7392578 51.0890625,47.6267578 C49.9441407,47.3419921 48.8478516,46.8878907 47.8365234,46.2802734 C47.4380859,46.0441407 46.9394532,46.0558593 46.5527343,46.3113282 L43.9705078,48.0310546 L41.9677734,46.0283203 L43.6898438,43.4472657 C43.9470704,43.0611328 43.9587891,42.5607421 43.7197266,42.1634766 C43.1109375,41.1521484 42.6568359,40.0564453 42.3720704,38.9109375 C42.2595704,38.4615234 41.8980468,38.1164062 41.4433593,38.0255859 L38.4,37.4173829 L38.4,34.5826172 L41.4433593,33.9744141 C41.8980468,33.8835938 42.2595704,33.5384766 42.3720704,33.0890625 C42.6568359,31.9435546 43.1109375,30.8478516 43.7197266,29.8365234 C43.9587891,29.4392579 43.9470704,28.9388672 43.6898438,28.5527343 L41.9677734,25.9716796 L43.9705079,23.9689453 L46.5527343,25.6886718 C46.9388672,25.9464843 47.4386718,25.9582032 47.8365234,25.7197266 C48.8478516,25.1121093 49.9441407,24.6580079 51.0890625,24.3732421 C51.5390625,24.2607421 51.8835938,23.8986328 51.9744141,23.4433593 L52.5837891,20.4 L55.4162109,20.4 L56.0255859,23.4433593 C56.1164063,23.8986328 56.4609375,24.2607421 56.9109375,24.3732421 C58.0558593,24.6580079 59.1521484,25.1121093 60.1634766,25.7197266 C60.5613282,25.9582032 61.0611329,25.9464843 61.4472657,25.6886718 L64.0294922,23.9689453 L66.0322266,25.9716796 L64.3101563,28.5527343 C64.0529296,28.9388672 64.0412109,29.4392579 64.2802734,29.8365234 C64.8890625,30.8478516 65.3431641,31.9435546 65.6279296,33.0890625 C65.7404296,33.5384766 66.1019532,33.8835938 66.5566407,33.9744141 L69.6,34.5826172 L69.6,37.4173829 Z"></path>
                    <g transform="translate(9.600000, 10.800000)">
                        <path d="M44.4,16.8 C39.7605468,16.8 36,20.5605468 36,25.2 C36,29.8394532 39.7605468,33.6 44.4,33.6 C49.0394532,33.6 52.8,29.8394532 52.8,25.2 C52.7947266,20.5628907 49.0371093,16.8052734 44.4,16.8 Z M44.4,31.2 C41.0865234,31.2 38.4,28.5134766 38.4,25.2 C38.4,21.8865234 41.0865234,19.2 44.4,19.2 C47.7134766,19.2 50.4,21.8865234 50.4,25.2 C50.3958984,28.5123047 47.7123047,31.1958984 44.4,31.2 Z"></path>
                        <polygon points="16.8 0 19.2 0 19.2 2.4 16.8 2.4"></polygon>
                        <polygon points="21.6 0 24 0 24 2.4 21.6 2.4"></polygon>
                        <polygon points="12 0 14.4 0 14.4 2.4 12 2.4"></polygon>
                        <polygon points="2.4 31.2 4.8 31.2 4.8 28.8 7.2 28.8 7.2 26.4 4.8 26.4 4.8 24 2.4 24 2.4 26.4 0 26.4 0 28.8 2.4 28.8"></polygon>
                        <polygon points="19.696875 24.20625 18 25.903125 16.303125 24.20625 14.60625 25.903125 16.303125 27.6 14.60625 29.296875 16.303125 30.99375 18 29.296875 19.696875 30.99375 21.39375 29.296875 19.696875 27.6 21.39375 25.903125"></polygon>
                        <polygon points="0 43.2 7.2 43.2 7.2 45.6 0 45.6"></polygon>
                        <polygon points="14.4 43.2 21.6 43.2 21.6 45.6 14.4 45.6"></polygon>
                        <polygon points="16.8 39.6 19.2 39.6 19.2 42 16.8 42"></polygon>
                        <polygon points="16.8 46.8 19.2 46.8 19.2 49.2 16.8 49.2"></polygon>
                    </g>
                    <path d="M52.8,66 C52.8,67.9880859 51.1880859,69.6 49.2,69.6 L6,69.6 C4.0119141,69.6 2.4,67.9880859 2.4,66 L2.4,24 L38.4,24 L38.4,21.6 L2.4,21.6 L2.4,6 C2.4,4.0119141 4.0119141,2.4 6,2.4 L49.2,2.4 C51.1880859,2.4 52.8,4.0119141 52.8,6 L52.8,15.6 L55.2,15.6 L55.2,6 C55.1958984,2.68769535 52.5123047,0.00410157 49.2,0 L6,0 C2.68769535,0.00410157 0.00410157,2.68769535 0,6 L0,66 C0.00410157,69.3123047 2.68769535,71.9958984 6,72 L49.2,72 C52.5123047,71.9958984 55.1958984,69.3123047 55.2,66 L55.2,56.4 L52.8,56.4 L52.8,66 Z"></path>
                    <path d="M7.2,4.8 C5.8746093,4.8 4.8,5.8746093 4.8,7.2 L4.8,16.8 C4.8,18.1253907 5.8746093,19.2 7.2,19.2 L48,19.2 C49.3253907,19.2 50.4,18.1253907 50.4,16.8 L50.4,7.2 C50.4,5.8746093 49.3253907,4.8 48,4.8 L7.2,4.8 Z M7.2,16.8 L7.2,7.2 L48,7.2 L48,16.8 L7.2,16.8 Z"></path>
                    <path d="M33.6,42 L33.6,45.6 L21.6,45.6 L21.6,31.2 L33.6,31.2 L33.6,28.8 L7.2,28.8 C5.8746093,28.8 4.8,29.8746093 4.8,31.2 L4.8,62.4 C4.8,63.7253907 5.8746093,64.8 7.2,64.8 L48,64.8 C49.3253907,64.8 50.4,63.7253907 50.4,62.4 L50.4,55.2 L48,55.2 L48,62.4 L36,62.4 L36,42 L33.6,42 Z M33.6,48 L33.6,62.4 L21.6,62.4 L21.6,48 L33.6,48 Z M19.2,31.2 L19.2,45.6 L7.2,45.6 L7.2,31.2 L19.2,31.2 Z M7.2,48 L19.2,48 L19.2,62.4 L7.2,62.4 L7.2,48 Z"></path>
                </g>
            </g>
        </g>
    </g>
</svg>