<?xml version="1.0" encoding="utf-8"?>
<!-- Generator: Adobe Illustrator 16.0.1, SVG Export Plug-In . SVG Version: 6.00 Build 0)  -->
<!DOCTYPE svg PUBLIC "-//W3C//DTD SVG 1.1//EN" "http://www.w3.org/Graphics/SVG/1.1/DTD/svg11.dtd">
<svg version="1.1" id="Layer_1" xmlns="http://www.w3.org/2000/svg" xmlns:xlink="http://www.w3.org/1999/xlink" x="0px" y="0px"
	 width="24.583px" height="23.417px" viewBox="0 0 24.583 23.417" enable-background="new 0 0 24.583 23.417" xml:space="preserve">
<polyline fill="none" stroke="#F29515" stroke-miterlimit="10" points="6.547,8.488 5.212,8.488 0.848,16.344 0.848,22.659 
	23.799,22.659 23.799,16.139 19.742,8.488 18.151,8.488 "/>
<line fill="none" stroke="#F29515" stroke-miterlimit="10" x1="2.799" y1="17.319" x2="22.104" y2="17.319"/>
<circle fill="#F29515" cx="21" cy="20.066" r="1.001"/>
<g>
	<path fill="#EF9418" d="M11.587,0.417v9.829L9.175,7.97c-0.143-0.135-0.33-0.203-0.518-0.203c-0.187,0-0.374,0.068-0.517,0.203
		c-0.287,0.27-0.287,0.708,0,0.977l3.661,3.455c0.285,0.27,0.749,0.27,1.035,0l3.661-3.455c0.286-0.27,0.286-0.707,0-0.977
		c-0.285-0.271-0.749-0.271-1.035,0l-2.411,2.275l-0.001-9.829H11.587z"/>
</g>
</svg>
