<svg width="102" height="85" viewBox="0 0 102 67" version="1.1" xmlns="http://www.w3.org/2000/svg"> <g stroke="none" stroke-width="1" fill="none" fill-rule="evenodd"> <g transform="translate(-669.000000, -392.000000)"> <g transform="translate(541.000000, 338.000000)"> <g transform="translate(130.000000, 56.000000)"> <g> <path d="M14.25,55.75 L6.75,63.25 L6.75,55.75 L3.75,55.75 C1.67893219,55.75 2.53632657e-16,54.0710678 0,52 L0,13.75 C-2.53632657e-16,11.6789322 1.67893219,10 3.75,10 L40.0534134,10 L65.25,10 C67.3210678,10 69,11.6789322 69,13.75 C69,28.3885861 69,39.3675257 69,46.6868188 C69,47.8675257 69,49.6385861 69,52 C69,54.0710678 67.3210678,55.75 65.25,55.75 L14.25,55.75 Z" fill="#FFFFFF" fill-rule="nonzero"></path> <path d="M14.25,55.75 L6.75,63.25 L6.75,55.75 L3.75,55.75 C1.67893219,55.75 2.53632657e-16,54.0710678 0,52 L0,13.75 C-2.53632657e-16,11.6789322 1.67893219,10 3.75,10 L40.0534134,10 L65.25,10 C67.3210678,10 69,11.6789322 69,13.75 C69,28.3885861 69,39.3675257 69,46.6868188 C69,47.8675257 69,49.6385861 69,52 C69,54.0710678 67.3210678,55.75 65.25,55.75 L14.25,55.75 Z" stroke="#782A90" stroke-width="3" stroke-linecap="round" stroke-linejoin="round" fill-rule="nonzero"></path> <text id="Q" font-family="ProximaNovaSoft-Bold, Proxima Nova Soft" font-size="13.5" font-weight="bold" fill="#782A90"> <tspan x="4.58625" y="29">Q</tspan> </text> <g transform="translate(5.250000, 22.500000)" fill="#D39BE4" fill-rule="nonzero" stroke="#782A90" stroke-linecap="square" stroke-linejoin="round"> <path d="M12.8323596,0.375 L69.8323596,0.375" stroke-width="2.5"></path> <path d="M18.8323596,6.45193839 L12.0823596,6.45193839" stroke-width="2.5"></path> <path d="M3.29627516,12.4519384 L0,12.4519384" stroke-width="2.5"></path> <path d="M69.9231816,6.45193839 L23.3323596,6.45193839" stroke-width="1.875"></path> <path d="M38.25,12.4519384 L7.75,12.4519384" stroke-width="2.5"></path> <path d="M1.8189894e-12,18.375 L53.8400342,18.375" stroke-width="2.5" transform="translate(26.920017, 18.375000) scale(-1, 1) translate(-26.920017, -18.375000) "></path> </g> <path d="M39,51 L31.5,58.5 L31.5,51 L28.5,51 C26.4289322,51 24.75,49.3210678 24.75,47.25 L24.75,9 C24.75,6.92893219 26.4289322,5.25 28.5,5.25 L90,5.25 C92.0710678,5.25 93.75,6.92893219 93.75,9 L93.75,47.25 C93.75,49.3210678 92.0710678,51 90,51 L39,51 Z" fill="#FFFFFF" fill-rule="nonzero" transform="translate(59.250000, 31.875000) scale(-1, 1) translate(-59.250000, -31.875000) "></path> <path d="M43.5,45.75 L36,53.25 L36,45.75 L33,45.75 C30.9289322,45.75 29.25,44.0710678 29.25,42 L29.25,3.75 C29.25,1.67893219 30.9289322,3.80448985e-16 33,0 L94.5,-4.4408921e-16 C96.5710678,-8.24538195e-16 98.25,1.67893219 98.25,3.75 L98.25,42 C98.25,44.0710678 96.5710678,45.75 94.5,45.75 L43.5,45.75 Z" stroke="#782A90" stroke-width="3" fill="#D39BE4" fill-rule="nonzero" stroke-linecap="round" stroke-linejoin="round" transform="translate(63.750000, 26.625000) scale(-1, 1) translate(-63.750000, -26.625000) "></path> <g transform="translate(39.000000, 9.000000)" fill="#D39BE4" fill-rule="nonzero" stroke="#782A90" stroke-linecap="square" stroke-linejoin="round" stroke-width="2.5"> <path d="M0,0.5 L49,0.5"></path> <g transform="translate(0.000000, 6.000000)"> <path d="M5.99322756,1.375 L0,1.375"></path> <path d="M49.2863947,1.375 L11.8930542,1.375"></path> </g> <g transform="translate(0.000000, 13.000000)"> <path d="M49.2863947,1.125 L38.9385088,1.125"></path> <path d="M2.99661378,1.125 L0,1.125"></path> <path d="M32.8021451,1.125 L8.25669058,1.125"></path> </g> <path d="M0.342465753,20.5 L49.8539125,20.5" transform="translate(25.000000, 20.500000) scale(-1, 1) translate(-25.000000, -20.500000) "></path> <g transform="translate(0.000000, 26.000000)"> <path d="M49.8475997,1.375 L43.8543721,1.375" transform="translate(46.850986, 1.375000) scale(-1, 1) translate(-46.850986, -1.375000) "></path> <path d="M38.0751587,1.375 L0.37967306,1.375" transform="translate(19.318182, 1.000000) scale(-1, 1) translate(-19.318182, -1.000000) "></path> </g> </g> <path d="" stroke="#4E5859" stroke-width="0.75" stroke-linecap="round" fill-rule="nonzero"></path> </g> </g> </g> </g> </g> </svg>