<?xml version="1.0" encoding="UTF-8"?>
<svg width="76px" height="76px" viewBox="0 0 76 76" version="1.1" xmlns="http://www.w3.org/2000/svg" xmlns:xlink="http://www.w3.org/1999/xlink">
    <!-- Generator: sketchtool 54.1 (76490) - https://sketchapp.com -->
    <title>893E58BC-CD05-4F43-A507-76C5EE93CF24@1x</title>
    <desc>Created with sketchtool.</desc>
    <defs>
        <polygon id="path-1" points="0.0059697733 0.021518285 78.9632859 0.021518285 78.9632859 78.9940227 0.0059697733 78.9940227"></polygon>
    </defs>
    <g id="Page-1" stroke="none" stroke-width="1" fill="none" fill-rule="evenodd">
        <g id="Resources-" transform="translate(-285.000000, -392.000000)">
            <g id="Group-24" transform="translate(141.000000, 338.000000)">
                <g id="Group-29">
                    <g id="ico/I-Heart-NDIS-vector" transform="translate(143.000000, 53.000000)">
                        <g id="I-Heart-NDIS-vector">
                            <g id="Group-3">
                                <mask id="mask-2" fill="white">
                                    <use xlink:href="#path-1"></use>
                                </mask>
                                <g id="Clip-2"></g>
                            </g>
                            <path d="M37.9222643,3 C48.6151439,3.01729881 57.8426639,6.78933358 64.7532872,13.8572883 C71.1702876,20.4204955 75.0612104,29.3752132 74.9992714,39.2246968 C74.8756917,58.8991077 58.9388749,75.1204181 38.7633622,74.9993264 C18.8127388,74.8796266 2.93537558,58.6635854 3.00019778,38.8570475 C3.03121699,29.404144 6.74676198,20.1619082 13.8254061,13.290802 C20.8258062,6.49575095 29.2655177,3.13819162 37.9222643,3" id="Fill-4" stroke="#782A90" stroke-width="2.5" fill="#FFFFFF"></path>
                            <path d="M47.0226926,16.7957699 C47.2542221,16.5482924 47.4796612,16.2914234 47.7293633,16.0582331 C48.5612779,15.281132 49.4874939,14.6602903 50.5676371,14.3028117 C52.1360845,13.7837785 53.6512909,13.9584214 55.1344741,14.659491 C55.7687488,14.9593214 56.2618663,15.4217055 56.7224694,15.9325462 C57.6646969,16.9775065 58.3620356,18.1672366 58.7304002,19.5416006 C59.1432633,21.0816157 59.0680187,22.6117397 58.5998518,24.1263777 C58.2051614,25.4032294 57.5756018,26.5585904 56.8097963,27.6403177 C55.799495,29.0675342 54.6004928,30.3169107 53.3021795,31.4715723 C51.4332448,33.1338774 49.3987917,34.5629923 47.2951842,35.8964931 C47.0778982,36.0342692 46.9343834,36.0349686 46.7148381,35.8957937 C44.9064134,34.7497243 43.1473988,33.5338178 41.4987953,32.158055 C40.0421343,30.942548 38.6839986,29.6258321 37.5292983,28.1044003 C36.6775412,26.9819097 35.9643873,25.7792912 35.4987744,24.4350001 C35.1140053,23.3240991 34.9354222,22.1820262 35.0210792,21.0054842 C35.1133177,19.7385235 35.5067311,18.5666774 36.1495519,17.4805541 C36.6174241,16.6898651 37.1928587,15.9888955 37.8565043,15.3593616 C38.1701545,15.0617293 38.5260438,14.8390295 38.9107147,14.6542957 C39.8540228,14.2014029 40.8416329,13.9565231 41.8885742,14.0063783 C42.9343367,14.0561336 43.8985679,14.384838 44.7978687,14.9215553 C45.569568,15.3821411 46.2493234,15.9570241 46.8501016,16.6300189 C46.892046,16.6769767 46.9345798,16.723335 46.9778995,16.7688941 C46.9871332,16.7785853 47.0013766,16.7832811 47.0226926,16.7957699" id="Fill-5" fill="#D39BE4"></path>
                            <path d="M40.444422,61.4985027 C40.3363993,61.5971105 40.2321755,61.6972913 40.1227891,61.791475 C39.4534187,62.3678832 38.6790452,62.722596 37.8181757,62.8865818 C36.7555794,63.0891063 35.7078861,63.0268742 34.69146,62.6475833 C33.4540209,62.1857095 32.5678259,61.3190818 31.9520285,60.1556475 C31.5231522,59.3452547 31.2732098,58.4765624 31.1364525,57.5724775 C30.9620967,56.4194644 30.9590771,55.2630104 31.1031398,54.1077361 C31.2565534,52.8772525 31.5921153,51.7033972 32.2557388,50.6458459 C33.0659575,49.3548016 34.1938154,48.5007579 35.6887946,48.1888112 C36.877044,47.9408662 38.0398705,48.0045729 39.1430849,48.5741976 C39.4504966,48.7328745 39.7342387,48.9271407 40.0039545,49.1436256 C40.0439881,49.1757739 40.0730149,49.2309274 40.1577577,49.2254219 C40.1577577,49.1518838 40.1577577,49.0776576 40.1577577,49.0035298 C40.1577577,46.844383 40.1577577,44.6852363 40.1578551,42.5261878 C40.1578551,42.1754076 40.1953562,42.1351977 40.5460159,42.0710977 C40.8452455,42.0164357 41.1486636,42.016534 41.4497439,42.008669 C42.0475213,41.9928407 42.6459805,41.9954951 43.2429786,42.0437667 C43.3798333,42.0547777 43.516688,42.0730639 43.6466269,42.1214339 C43.8051056,42.1804216 43.8503992,42.2457013 43.8554642,42.4143078 C43.8572175,42.4697563 43.8557565,42.5254013 43.8557565,42.5809481 C43.8557565,48.0308225 43.8558539,53.4806968 43.8553668,58.9304728 C43.8553668,59.0627036 43.8598475,59.1937546 43.883517,59.3243141 C43.9343627,59.6041125 44.0551455,59.7300512 44.3333355,59.7968056 C44.4418452,59.8228586 44.5510367,59.8235467 44.6610075,59.8275776 C44.8497793,59.8343612 44.9244893,59.8925624 44.9554642,60.0791601 C44.9792312,60.222402 44.994816,60.3687898 44.9952057,60.5138012 C44.9965693,61.0270926 45.0162452,61.5409739 44.9645229,62.0530855 C44.9576072,62.1218062 44.9416327,62.1895437 44.9285803,62.2574779 C44.9010146,62.4006214 44.8152978,62.4855637 44.6786379,62.5330488 C44.3525244,62.6464035 44.0182288,62.7255454 43.6773096,62.7701794 C43.2131726,62.8309367 42.7473796,62.8640682 42.2802229,62.7913166 C41.4851995,62.6674425 40.8593693,62.2964098 40.4878648,61.5500186 C40.4789035,61.532224 40.4616628,61.5185585 40.444422,61.4985027" id="Fill-6" fill="#782A90"></path>
                            <path d="M29.8864641,25.9935258 C29.8864641,28.4226474 29.886278,30.851871 29.8866502,33.2809926 C29.8866502,33.5762112 29.8633897,33.5428306 30.13256,33.5435452 C30.5596225,33.5446681 30.9866849,33.5438514 31.4137474,33.5438514 C31.4465912,33.5438514 31.479435,33.5434431 31.5122788,33.5439535 C31.8427638,33.5485472 31.9190581,33.6294975 31.9632531,33.9954582 C32.0023307,34.3184428 32.0004698,34.6424481 31.9968412,34.9664535 C31.9911656,35.4776756 32.0217764,35.9899185 31.9642765,36.4998135 C31.9611131,36.5283963 31.9599035,36.5572852 31.9562749,36.5858679 C31.9122661,36.9237563 31.8327152,36.9998067 31.5186987,36.9998067 C28.8381607,37.000113 26.1576226,37.0000109 23.4769916,36.9998067 C23.4311219,36.9998067 23.3850661,36.998888 23.3391965,36.9968464 C23.2131246,36.9911298 23.1319921,36.9202856 23.0894719,36.7910509 C23.0398806,36.640073 23.0218304,36.4822556 23.0168062,36.3244382 C22.994197,35.6184454 22.9950344,34.9121464 23.0155036,34.2061536 C23.0195974,34.0627296 23.0375545,33.9196119 23.0781208,33.78119 C23.118408,33.6437888 23.1958188,33.5592657 23.3331487,33.5543658 C23.4314941,33.5509971 23.5298394,33.544566 23.6281847,33.5443619 C24.0683661,33.543239 24.5085475,33.5447702 24.9487288,33.543341 C25.1018758,33.5428306 25.1020619,33.5402786 25.1055045,33.3807259 C25.1062488,33.3446912 25.1055975,33.3086566 25.1055975,33.272622 C25.1055975,28.4215245 25.1058766,23.5703249 25.1050393,18.7191253 C25.1049462,18.4190069 25.1424421,18.4626976 24.8619207,18.4612685 C24.3888955,18.4587164 23.9157773,18.4613705 23.4427521,18.4602476 C23.1811182,18.4595331 23.0952405,18.3760307 23.0465796,18.0910203 C23.0113167,17.8844082 23.0046177,17.6755503 23.0042455,17.4667945 C23.0034081,16.904736 23.0041525,16.3424734 23.012061,15.7804149 C23.014294,15.6229038 23.0333676,15.4635552 23.0624898,15.3092086 C23.1054751,15.081874 23.1933998,15.0106214 23.4050701,15.0012299 C23.4575458,14.9988821 23.5101145,15.0006175 23.5626832,15.0006175 C26.1907456,15.0005154 28.8187149,15.0005154 31.4466843,15.0005154 C31.4795281,15.0005154 31.5123719,15.0002091 31.5452157,15.0006175 C31.8311335,15.0044965 31.9178486,15.085651 31.9559027,15.3992441 C31.9836292,15.6278037 31.9992603,15.8576903 31.9979577,16.0886998 C31.9948873,16.607578 31.9947943,17.1265582 31.9903283,17.6454364 C31.9889326,17.811114 31.9727433,17.9766895 31.9378526,18.1379776 C31.8839813,18.3872597 31.7993132,18.4590227 31.5647545,18.4599414 C31.0785173,18.4618809 30.5923732,18.4605539 30.1062292,18.4605539 C30.0601734,18.4605539 30.0142107,18.4620851 29.968248,18.4611664 C29.9094455,18.4599414 29.886278,18.4936282 29.8869293,18.5545706 C29.8874876,18.6122464 29.8864641,18.6699222 29.8864641,18.727598 C29.8864641,21.1495739 29.8864641,23.5715499 29.8864641,25.9935258" id="Fill-7" fill="#782A90"></path>
                            <path d="M20.7604363,49.7219622 C20.8675566,49.6179336 20.9566556,49.52868 21.0485737,49.4423413 C21.838384,48.7006725 22.7772968,48.2536007 23.8413511,48.0848432 C24.8742961,47.9210106 25.898885,47.9886544 26.8896465,48.3384318 C28.3717112,48.8614897 29.274179,49.9256975 29.6993376,51.4142617 C29.8953556,52.1004485 29.9693531,52.806034 29.9790181,53.517047 C30.0196916,56.5046285 29.9869716,59.4924109 29.9964352,62.4800929 C29.9973413,62.7729812 29.9324047,62.8583149 29.6434619,62.9177167 C29.4840904,62.9505837 29.3201884,62.9689772 29.1574945,62.976415 C28.4189287,63.0099856 27.6800609,63.0056636 26.9413944,62.976415 C26.7499069,62.9687762 26.5587215,62.9474679 26.3736773,62.89279 C26.2364547,62.8521837 26.1547051,62.7669506 26.1592355,62.6150788 C26.1611484,62.551355 26.1583294,62.4874302 26.1583294,62.4235054 C26.1583294,59.7761528 26.1611484,57.1289007 26.1557118,54.4815481 C26.1547051,54.0000012 26.1286297,53.5185547 26.0483902,53.0409276 C25.9077446,52.2033715 25.4219785,51.6988076 24.5986428,51.5123602 C23.8383308,51.3401852 23.0903013,51.3969738 22.3517355,51.636893 C21.5475284,51.8981204 21.1388808,52.4514321 21.0892471,53.2904958 C21.0578359,53.8218961 21.0396134,54.3532964 21.0393114,54.8852998 C21.0374992,57.3906307 21.038506,59.8960621 21.038506,62.401393 C21.038506,62.4511458 21.0397141,62.5007981 21.0382039,62.5504504 C21.031962,62.7551908 20.9795093,62.831981 20.7843974,62.8916844 C20.5376383,62.9670675 20.2812143,62.976415 20.0252936,62.9849584 C19.3504562,63.0073723 18.6755183,63.0038544 18.000983,62.976214 C17.8453365,62.9698818 17.6886832,62.9524934 17.5356543,62.9238479 C17.2601016,62.8722858 17.2070449,62.8017273 17.2070449,62.5233125 C17.2068435,59.9895371 17.2065415,57.4557617 17.2070449,54.9219862 C17.2073469,53.7586748 17.1824797,52.595665 17.1426117,51.4332582 C17.1124086,50.5548948 17.080192,49.6761293 17.0036775,48.7999771 C16.9812266,48.5426696 17.0589492,48.4308011 17.3093326,48.3699921 C17.5659581,48.3076755 17.8291275,48.2913927 18.0917935,48.2909907 C18.7168965,48.2898851 19.3426035,48.2579227 19.9665989,48.3222495 C20.0089839,48.326672 20.0517716,48.3282802 20.0938545,48.3349139 C20.4237728,48.387481 20.5386451,48.48568 20.6060986,48.8126415 C20.6663034,49.1039216 20.7065742,49.3993227 20.7604363,49.7219622" id="Fill-8" fill="#782A90"></path>
                            <path d="M58.0866379,48.0002221 C59.2706269,48.0003208 60.4108511,48.2097224 61.4866464,48.7288329 C61.8354002,48.8971637 62.1645622,49.0981734 62.4745223,49.3315658 C62.6777508,49.4844951 62.7125482,49.5921084 62.6371051,49.8346824 C62.579012,50.0218703 62.4881683,50.19494 62.3901118,50.3621848 C62.162028,50.7514683 61.9270236,51.1365066 61.691532,51.5211499 C61.619013,51.6395244 61.5351873,51.7505932 61.4324521,51.8451744 C61.2826381,51.9831957 61.1587516,52.0024477 60.9835949,51.8981912 C60.752392,51.7604659 60.5221638,51.6212598 60.2809213,51.5022929 C59.6340015,51.1833035 58.9498475,51.0128007 58.2311885,51.013788 C57.7492883,51.0144791 57.2698249,51.0595976 56.8192132,51.2613972 C56.633627,51.3444272 56.471824,51.4578654 56.3368257,51.6112883 C55.9659458,52.0328558 56.0109777,52.6012315 56.444142,52.9567501 C56.6713486,53.1432468 56.9327677,53.2665578 57.2021796,53.3740723 C57.739931,53.5887064 58.2978592,53.7406484 58.8489643,53.9133233 C59.5126492,54.1211452 60.1695111,54.3452572 60.7896262,54.6681956 C61.2831255,54.925184 61.7353942,55.2381509 62.1108553,55.6552757 C62.6298922,56.2319445 62.9101234,56.9187934 62.9781587,57.6896597 C63.0995109,59.065036 62.7163496,60.2799797 61.7994332,61.3088216 C61.1729824,62.0117632 60.3802449,62.4413276 59.4905231,62.7006854 C58.8591013,62.8847139 58.2121815,62.96883 57.5577564,62.9929195 C56.47699,63.0327068 55.4159129,62.9065328 54.3838823,62.5707597 C53.6056681,62.3176217 52.8779443,61.9623993 52.236093,61.4414129 C51.989782,61.241588 51.9540098,61.1268663 52.0471928,60.8257467 C52.0594742,60.7858607 52.072438,60.7458759 52.0894955,60.7079645 C52.3533515,60.1243848 52.6602899,59.5651908 53.0137224,59.0323571 C53.0404296,58.9919775 53.071913,58.9545596 53.1036888,58.9179316 C53.3257293,58.6613382 53.4523451,58.6434685 53.7386195,58.8293729 C54.5342812,59.3460152 55.3871587,59.7213781 56.3229847,59.8807247 C57.0166909,59.9990005 57.7067907,59.9847837 58.3830494,59.7633374 C58.6072344,59.6897852 58.8138744,59.5811847 58.9966339,59.4282554 C59.513234,58.9960253 59.4959815,58.3192466 58.954916,57.9168323 C58.6115231,57.6614236 58.2131562,57.5248831 57.8137171,57.3948586 C57.1728406,57.1863456 56.5186104,57.0219639 55.8817302,56.8002214 C55.1837352,56.5572524 54.5098158,56.265117 53.9166029,55.8080075 C53.0569998,55.1455443 52.5989802,54.2624246 52.4874726,53.1808621 C52.4096901,52.4262859 52.4796748,51.6911591 52.756592,50.9850582 C53.1151904,50.0703456 53.742031,49.3855699 54.5688836,48.8831444 C55.3297479,48.4208023 56.1609867,48.1713173 57.0367701,48.0589651 C57.3855239,48.0142415 57.7353499,47.9978527 58.0866379,48.0002221" id="Fill-9" fill="#782A90"></path>
                            <path d="M46.5003068,55.4898084 C46.5003068,53.2267419 46.5003068,50.9636754 46.5003068,48.7007114 C46.5003068,48.6572795 46.5002018,48.6139501 46.5003068,48.5705182 C46.501357,48.1830117 46.5453596,48.1197077 46.9402277,48.0638814 C47.203298,48.026698 47.4714092,48.0109232 47.7373151,48.0093867 C48.4409363,48.0051869 49.1451877,47.9777347 49.8477588,48.0421655 C49.9883781,48.0550721 50.1263718,48.0774027 50.2615301,48.1170445 C50.4147516,48.1620128 50.4974008,48.2592224 50.498766,48.4177896 C50.4991861,48.4756647 50.4999212,48.5334372 50.4999212,48.5913122 C50.5000263,53.1968313 50.5000263,57.8024528 50.4999212,62.4080743 C50.4999212,62.8049022 50.4301892,62.8777325 50.0261846,62.9385781 C49.7538726,62.979654 49.4800905,62.9862098 49.2063083,62.9894877 C48.4584744,62.9982969 47.7100104,63.0235981 46.9641718,62.9396025 C46.9347667,62.9363246 46.9049416,62.934993 46.8758516,62.9299737 C46.5733994,62.8768106 46.501462,62.7977319 46.501042,62.4957575 C46.4992567,61.4111901 46.5003068,60.3267251 46.5003068,59.2421577 C46.5003068,57.9913404 46.5003068,56.7406256 46.5003068,55.4898084" id="Fill-10" fill="#782A90"></path>
                            <path d="M48.4903693,46.9994811 C47.1151017,46.9984545 45.9906626,45.8713902 46.0000585,44.5035967 C46.0095564,43.1106525 47.1276635,41.9868732 48.5102844,42.0001158 C50.0232217,42.0146931 51.0236763,43.2745947 50.9995739,44.5455832 C50.9742459,45.883709 49.8588964,47.0279169 48.4903693,46.9994811" id="Fill-11" fill="#782A90"></path>
                            <path d="M39.9988432,55.3394339 C39.9988432,56.1165707 40.0024877,56.8938114 39.9968388,57.6709482 C39.9948343,57.9485936 39.9860875,58.2267585 39.9444492,58.5026374 C39.8747484,58.9655528 39.6684703,59.3139603 39.3096703,59.5480677 C38.9526925,59.781136 38.5667411,59.9132046 38.1622028,59.9690038 C37.6585343,60.0384152 37.1616993,59.9955007 36.6802622,59.7970341 C36.1367777,59.5730059 35.7664976,59.1348209 35.5048232,58.5617617 C35.2766782,58.0621663 35.147481,57.5267223 35.080058,56.9728863 C34.9509519,55.9119735 34.9799256,54.8536584 35.1530389,53.801474 C35.2231042,53.375758 35.3338056,52.9630307 35.5014521,52.5723322 C35.9575599,51.5094451 36.7106026,50.9924969 37.7419931,51.0000823 C38.6545733,51.0067324 39.3616043,51.4895984 39.9440848,52.255617 C40.00267,52.3326137 39.998661,52.4150137 39.998661,52.5019857 C39.9988432,53.1691866 39.9987521,53.8363875 39.9987521,54.5035884 C39.9987521,54.7821689 39.9988432,55.0608533 39.9988432,55.3394339" id="Fill-12" fill="#FFFFFF"></path>
                        </g>
                    </g>
                </g>
            </g>
        </g>
    </g>
</svg>