<?xml version="1.0" encoding="UTF-8"?>
<svg width="113px" height="77px" viewBox="0 0 113 77" version="1.1" xmlns="http://www.w3.org/2000/svg" xmlns:xlink="http://www.w3.org/1999/xlink">
    <!-- Generator: sketchtool 54.1 (76490) - https://sketchapp.com -->
    <title>219553CC-97EC-4E1C-AAC5-D8B945E3271B@1x</title>
    <desc>Created with sketchtool.</desc>
    <defs>
        <polygon id="path-1" points="0.178460465 0.00270612245 7.8506 0.00270612245 7.8506 0.795918367 0.178460465 0.795918367"></polygon>
    </defs>
    <g id="Page-1" stroke="none" stroke-width="1" fill="none" fill-rule="evenodd">
        <g id="Homepage/1" transform="translate(-1117.000000, -2126.000000)">
            <g id="Group-19" transform="translate(1040.000000, 2092.000000)">
                <g id="Group-28">
                    <g id="ico/OT-Directoy" transform="translate(79.000000, 36.000000)">
                        <rect id="Rectangle" stroke="#782A90" stroke-width="3" fill="#D39BE4" fill-rule="nonzero" stroke-linecap="round" stroke-linejoin="round" x="5" y="9" width="104" height="64" rx="6"></rect>
                        <rect id="Rectangle" stroke="#782A90" stroke-width="3" fill="#FFFFFF" fill-rule="nonzero" stroke-linecap="round" stroke-linejoin="round" x="0" y="3" width="104" height="64" rx="6"></rect>
                        <g id="Group-26" transform="translate(9.000000, 17.000000)">
                            <path d="M25.9651674,10.0192592 L25.9651674,27.4817082 L25.1507488,27.2270143 L24.2651674,26.956402 L22.0591209,26.2798714 C21.2842372,26.0410959 20.7465628,25.3168102 20.7465628,24.4970143 L20.7465628,22.4117082 L20.2009814,22.4117082 C22.2963302,21.2178306 23.7116791,18.9574224 23.7116791,16.3627286 L23.7116791,12.7174224 L18.9042372,12.7174224 C15.4647023,12.7174224 12.4837721,11.483749 9.95353953,9.00844286 L9.95353953,16.3627286 C9.95353953,18.9574224 11.3688884,21.2178306 13.4642372,22.4117082 L13.1400512,22.4117082 L13.1400512,24.5049735 C13.1400512,25.3168102 12.6102837,26.0410959 11.8354,26.2798714 L9.52656279,27.0041571 L7.49446977,27.6408918 L7.49446977,10.0192592 C7.49446977,4.88558571 11.6298186,0.722932653 16.7298186,0.722932653 C21.8298186,0.722932653 25.9651674,4.88558571 25.9651674,10.0192592" id="Fill-1" fill="#FFFFFF"></path>
                            <path d="M25.9651674,10.0192592 L25.9651674,27.4817082 L25.1507488,27.2270143 L24.2651674,26.956402 L22.0591209,26.2798714 C21.2842372,26.0410959 20.7465628,25.3168102 20.7465628,24.4970143 L20.7465628,22.4117082 L20.2009814,22.4117082 C22.2963302,21.2178306 23.7116791,18.9574224 23.7116791,16.3627286 L23.7116791,12.7174224 L18.9042372,12.7174224 C15.4647023,12.7174224 12.4837721,11.483749 9.95353953,9.00844286 L9.95353953,16.3627286 C9.95353953,18.9574224 11.3688884,21.2178306 13.4642372,22.4117082 L13.1400512,22.4117082 L13.1400512,24.5049735 C13.1400512,25.3168102 12.6102837,26.0410959 11.8354,26.2798714 L9.52656279,27.0041571 L7.49446977,27.6408918 L7.49446977,10.0192592 C7.49446977,4.88558571 11.6298186,0.722932653 16.7298186,0.722932653 C21.8298186,0.722932653 25.9651674,4.88558571 25.9651674,10.0192592 Z" id="Stroke-3" stroke="#782A90" stroke-width="2.5" stroke-linecap="round" stroke-linejoin="round"></path>
                            <g id="Group-7" transform="translate(12.651163, 36.996912)">
                                <mask id="mask-2" fill="white">
                                    <use xlink:href="#path-1"></use>
                                </mask>
                                <g id="Clip-6"></g>
                                <path d="M7.8506,0.00470612245 L7.56594884,0.00470612245 M5.28873953,0.00270612245 L0.178460465,0.00270612245" id="Stroke-5" stroke="#782A90" stroke-width="1.4536" stroke-linecap="round" mask="url(#mask-2)"></path>
                            </g>
                            <path d="M24.7011581,37.0354347 C24.7011581,37.1229857 15.6437163,36.9216184 15.848507,37.0012102 L0.915390698,37.0012102 L0.718506977,32.6634551 C0.718506977,30.9363122 1.8333907,29.4161082 3.46222791,28.9067204 L7.49478605,27.6412102 L9.52687907,27.0044755 L17.038507,31.0159041 L24.2654837,26.9567204 L25.1510651,27.2273327 L25.9654837,27.4820265 L30.6068791,28.9146796 C31.634786,29.2330469 32.4650186,29.9573327 32.9394372,30.880598 L33.2596698,32.3824959 C33.4423209,33.8621082 33.3015767,36.9805163 33.3015767,36.9805163 L24.7011581,37.0354347 Z" id="Fill-8" fill="#D39BE4"></path>
                            <path d="M8.10852558,37.0695796 L8.97354884,37.0695796" id="Stroke-16" stroke="#782A90" stroke-width="2.5" stroke-linecap="round"></path>
                            <path d="M16.3980419,23.2794184 C16.5403674,23.2873776 16.6906,23.2953367 16.8329256,23.2953367 C16.9752512,23.2953367 17.1254837,23.2873776 17.2678093,23.2794184" id="Stroke-18" stroke="#782A90" stroke-width="1.4536" stroke-linecap="round" stroke-linejoin="round"></path>
                            <path d="M5.39706512,37.0012102 L0.718506977,37.0012102 L0.718506977,32.6634551 C0.718506977,30.9363122 1.8333907,29.4161082 3.46222791,28.9067204 L7.49478605,27.6412102 L9.52687907,27.0044755 L17.038507,31.0159041 L24.2654837,26.9567204 L25.1510651,27.2273327 L25.9654837,27.4820265 L30.6068791,28.9146796 C31.634786,29.2330469 32.4650186,29.9573327 32.9394372,30.880598 C32.9394372,30.880598 33.1845535,31.4878837 33.1845535,32.3156388 L33.1845535,36.9805163 L12.7268326,36.9805163" id="Stroke-20" stroke="#782A90" stroke-width="2.5" stroke-linecap="round"></path>
                            <path d="M17.2678884,23.2794184 C17.1255628,23.2873776 16.9753302,23.2953367 16.8330047,23.2953367 C16.6906791,23.2953367 16.5404465,23.2873776 16.3981209,23.2794184" id="Stroke-22" stroke="#782A90" stroke-width="1.4536" stroke-linecap="round" stroke-linejoin="round"></path>
                            <path d="M20.2013767,22.4119469 C19.7506791,22.6666408 19.2683535,22.8656204 18.770214,23.0168449 C18.4776558,23.1043959 18.1850977,23.1680694 17.8767256,23.2158245 C17.7660279,23.2317429 17.6553302,23.2476612 17.5367256,23.2556204 C17.4497488,23.2715388 17.3548651,23.279498 17.2678884,23.279498 C17.1255628,23.2874571 16.9753302,23.2954163 16.8330047,23.2954163 C16.6906791,23.2954163 16.5404465,23.2874571 16.3981209,23.279498 C16.3111442,23.279498 16.2162605,23.2715388 16.1292837,23.2556204 C16.0106791,23.2476612 15.8999814,23.2317429 15.7892837,23.2158245 C15.4809116,23.1680694 15.1883535,23.1043959 14.8957953,23.0168449 C14.3976558,22.8656204 13.9153302,22.6666408 13.4646326,22.4119469" id="Stroke-24" stroke="#782A90" stroke-width="2.5" stroke-linecap="round" stroke-linejoin="round"></path>
                        </g>
                        <polygon id="Fill-5" fill="#782A90" points="69.4471545 19.6969697 96.4471545 19.6969697 96.4471545 17 69.4471545 17"></polygon>
                        <polygon id="Fill-7" fill="#782A90" points="60 26.6969697 91.8373984 26.6969697 91.8373984 24 60 24"></polygon>
                        <polygon id="Fill-7" fill="#782A90" points="60 33.6969697 91.8373984 33.6969697 91.8373984 31 60 31"></polygon>
                        <polygon id="Fill-7" fill="#782A90" points="60 40.6969697 91.8373984 40.6969697 91.8373984 38 60 38"></polygon>
                        <polygon id="Fill-9" fill="#782A90" points="60 19.6969697 66.0731707 19.6969697 66.0731707 17 60 17"></polygon>
                        <path d="M51.5,3 L51.5,66" id="Line-5" stroke="#782A90" stroke-width="3" stroke-linecap="round" stroke-linejoin="round" fill-rule="nonzero"></path>
                        <path d="M40.5,0 L40.5,5" id="Line-5" stroke="#782A90" stroke-width="3" stroke-linecap="round" stroke-linejoin="round" fill-rule="nonzero"></path>
                        <path d="M14.5,0 L14.5,5" id="Line-5" stroke="#782A90" stroke-width="3" stroke-linecap="round" stroke-linejoin="round" fill-rule="nonzero"></path>
                        <path d="M64.5,0 L64.5,5" id="Line-5" stroke="#782A90" stroke-width="3" stroke-linecap="round" stroke-linejoin="round" fill-rule="nonzero"></path>
                        <path d="M88.5,0 L88.5,5" id="Line-5" stroke="#782A90" stroke-width="3" stroke-linecap="round" stroke-linejoin="round" fill-rule="nonzero"></path>
                    </g>
                </g>
            </g>
        </g>
    </g>
</svg>