<?xml version="1.0" encoding="UTF-8"?>
<svg width="65px" height="77px" viewBox="0 0 65 77" version="1.1" xmlns="http://www.w3.org/2000/svg" xmlns:xlink="http://www.w3.org/1999/xlink">
    <!-- Generator: sketchtool 54.1 (76490) - https://sketchapp.com -->
    <title>03965DA2-62CE-439E-8DE0-806F1CE0210A</title>
    <desc>Created with sketchtool.</desc>
    <defs>
        <path d="M0.382183673,1.59664407 L0.867693878,1.28183051 L0.382183673,1.59664407 Z" id="path-1"></path>
    </defs>
    <g id="Page-1" stroke="none" stroke-width="1" fill="none" fill-rule="evenodd">
        <g id="Homepage/1" transform="translate(-1013.000000, -591.000000)">
            <g id="Group-31" transform="translate(1015.000000, 593.000000)">
                <g id="ico/why-us-freindly-staff">
                    <g id="Group-17">
                        <path d="M39.7492184,15.6491153 L39.7492184,43.1670814 L38.4669735,42.7657254 L37.0739327,42.3392847 L33.6006673,41.2731831 C32.3794224,40.8969119 31.5328918,39.7555559 31.5328918,38.4636915 L31.5328918,35.1775898 L30.6739122,35.1775898 C33.9728918,33.2962339 36.2012592,29.7342 36.2012592,25.6453864 L36.2012592,19.9022339 L28.6322796,19.9022339 C23.2169735,19.9022339 18.5237082,17.9569119 14.5400347,14.0562339 L14.5400347,25.6453864 C14.5400347,29.7342 16.768402,33.2962339 20.0673816,35.1775898 L19.5569735,35.1775898 L19.5569735,38.4762339 C19.5569735,39.7555559 18.7228918,40.8969119 17.5028918,41.2731831 L13.8677898,42.414539 L10.6696469,43.4191831 L10.6696469,15.6491153 C10.6696469,7.55928475 17.1792184,0.999623729 25.2088102,0.999623729 C33.2396469,0.999623729 39.7492184,7.55928475 39.7492184,15.6491153" id="Fill-1" fill="#FFFFFF"></path>
                        <path d="M39.7492184,14.6491153 L39.7492184,42.1670814 L38.4669735,41.7657254 L37.0739327,41.3392847 L33.6006673,40.2731831 C32.3794224,39.8969119 31.5328918,38.7555559 31.5328918,37.4636915 L31.5328918,34.1775898 L30.6739122,34.1775898 C33.9728918,32.2962339 36.2012592,28.7342 36.2012592,24.6453864 L36.2012592,18.9022339 L28.6322796,18.9022339 C23.2169735,18.9022339 18.5237082,16.9569119 14.5400347,13.0562339 L14.5400347,24.6453864 C14.5400347,28.7342 16.768402,32.2962339 20.0673816,34.1775898 L19.5569735,34.1775898 L19.5569735,37.4762339 C19.5569735,38.7555559 18.7228918,39.8969119 17.5028918,40.2731831 L13.8677898,41.414539 L10.6696469,42.4191831 L10.6696469,14.6491153 C10.6696469,6.55928475 17.1792184,-0.000376271187 25.2088102,-0.000376271187 C33.2396469,-0.000376271187 39.7492184,6.55928475 39.7492184,14.6491153 Z" id="Stroke-3" stroke="#782A90" stroke-width="2.5" stroke-linecap="round" stroke-linejoin="round"></path>
                        <path d="M51.1156347,48.3383051 C48.8872673,48.5766102 46.9078796,49.7054237 45.5633898,51.3484746 C44.0197163,49.479661 41.6917571,48.2881356 39.0899204,48.2881356 C34.4589,48.2881356 30.6868592,52.0884746 30.6868592,56.7667797 C30.6868592,56.9047458 30.6868592,57.0427119 31.0105327,57.1681356 L0.310104082,57.1681356 L0.000124489796,50.3325424 C0.000124489796,47.6108475 1.75543061,45.2152542 4.31992041,44.4125424 L10.6689,42.4183051 L13.8682878,41.4149153 L25.6948184,47.7362712 L37.0731857,41.339661 L38.4674714,41.7661017 L39.7497163,42.1674576 L47.0572673,44.4250847 C48.6756347,44.9267797 49.9827776,46.0681356 50.7297163,47.5230508 L51.1156347,48.3383051 Z" id="Fill-7" fill="#D39BE4"></path>
                        <path d="M21.3310776,29.2835559 C23.6030163,31.5775559 27.2866694,31.5775559 29.5573633,29.2835559" id="Stroke-9" stroke="#782A90" stroke-width="1.2975" stroke-linecap="round"></path>
                        <path d="M21.3310776,24.1508407 C21.3310776,23.0696881 20.5343429,22.191722 19.5533633,22.191722 C18.5711388,22.191722 17.775649,23.0696881 17.775649,24.1508407" id="Stroke-11" stroke="#782A90" stroke-width="1.2975" stroke-linecap="round"></path>
                        <path d="M32.9661429,24.1508407 C32.9661429,23.0696881 32.1694082,22.191722 31.1884286,22.191722 C30.2062041,22.191722 29.4107143,23.0696881 29.4107143,24.1508407" id="Stroke-13" stroke="#782A90" stroke-width="1.2975" stroke-linecap="round"></path>
                        <path d="M11.6350653,57.276 L12.9969837,57.276" id="Stroke-15" stroke="#782A90" stroke-width="2.27125" stroke-linecap="round"></path>
                    </g>
                    <g id="Group-23" transform="translate(52.285714, 68.728814)">
                        <mask id="mask-2" fill="white">
                            <use xlink:href="#path-1"></use>
                        </mask>
                        <g id="Clip-22"></g>
                    </g>
                    <path d="M53.3796939,68.6489322 L53.8652041,68.3341186" id="Stroke-24" stroke="#782A90" stroke-width="2.5" stroke-linecap="round"></path>
                    <path d="M50.3929244,70.4616408 C48.997488,71.3266365 48.3405903,71.6124721 45.999372,72.8644068 C36.0002093,68.0002099 31,62.4819613 31,56.3096612 C31,51.6451747 34.7956877,47.8644068 39.4781243,47.8644068 C42.1006908,47.8644068 44.4444212,49.0514356 45.999372,50.9137353 C47.5555788,49.0514356 49.8993092,47.8644068 52.5218757,47.8644068 C57.2043123,47.8644068 61,51.6451747 61,56.3096612 C61,59.6086277 59.5719071,62.7203656 56.7157212,65.6461233" id="Stroke-28" stroke="#782A90" stroke-width="2.5" stroke-linecap="round"></path>
                    <path d="M7.36606122,57.168261 L0,57.168261 L0,50.3326678 C0,47.6109729 1.75530612,45.2153797 4.31979592,44.4126678 L10.6687755,42.4184305 L13.8681633,41.4150407 L25.6946939,47.7363966 L37.0730612,41.3397864 L38.4673469,41.7662271 L39.7495918,42.1675831 L47.0571429,44.4252102 C48.6755102,44.9269051 49.9542574,46.2814814 50.7011962,47.7363966 C48.7247667,48.7223718 47.1577013,49.9135515 46,51.3099357 C44.4563265,49.4411221 42.3807774,47.8644068 39.7789407,47.8644068 C34.5255502,47.8644068 31.012449,51.5740664 31,56.7669051 C30.9996692,56.9048711 30.987551,57.0428373 31,57.168261 L16.3181224,57.168261" id="Stroke-30" stroke="#782A90" stroke-width="2.5" stroke-linecap="round"></path>
                    <path d="M30.6744102,34.1779661 C29.9648184,34.579322 29.2054306,34.8928814 28.4211449,35.1311864 C27.9605327,35.2691525 27.4999204,35.3694915 27.0144102,35.4447458 C26.8401245,35.4698305 26.6658388,35.4949153 26.4791041,35.5074576 C26.3421653,35.5325424 26.1927776,35.5450847 26.0558388,35.5450847 C25.8317571,35.5576271 25.5952265,35.5701695 25.3711449,35.5701695 C25.1470633,35.5701695 24.9105327,35.5576271 24.686451,35.5450847 C24.5495122,35.5450847 24.4001245,35.5325424 24.2631857,35.5074576 C24.076451,35.4949153 23.9021653,35.4698305 23.7278796,35.4447458 C23.2423694,35.3694915 22.7817571,35.2691525 22.3211449,35.1311864 C21.5368592,34.8928814 20.7774714,34.579322 20.0678796,34.1779661" id="Stroke-34" stroke="#782A90" stroke-width="2.5" stroke-linecap="round" stroke-linejoin="round"></path>
                </g>
            </g>
        </g>
    </g>
</svg>