<?xml version="1.0" encoding="UTF-8"?>
<svg width="72px" height="51px" viewBox="0 0 72 51" version="1.1" xmlns="http://www.w3.org/2000/svg" xmlns:xlink="http://www.w3.org/1999/xlink">
    <!-- Generator: sketchtool 54.1 (76490) - https://sketchapp.com -->
    <title>BCA3DCD7-60E6-45F0-AB92-B37E0D4C8DDB</title>
    <desc>Created with sketchtool.</desc>
    <g id="Page-1" stroke="none" stroke-width="1" fill="none" fill-rule="evenodd">
        <g id="Homepage/1" transform="translate(-734.000000, -603.000000)">
            <g id="Group-26" transform="translate(735.000000, 603.000000)">
                <g id="ico/why-us-mobile-service-and-repairs">
                    <g id="ico/why-us-free-pick-up" transform="translate(0.723493, 11.555556)" fill-rule="nonzero" stroke="#782A90" stroke-width="2.5">
                        <path d="M68.219697,16.705259 L52.6677487,1.25 L12.1969697,1.25 C10.5442994,1.25 9.20454545,2.58975397 9.20454545,4.24242424 L9.20454545,27.3791974 C9.20454545,29.0318677 10.5442994,30.3716216 12.1969697,30.3716216 L65.2272727,30.3716216 C66.879943,30.3716216 68.219697,29.0318677 68.219697,27.3791974 L68.219697,16.705259 Z" id="Rectangle" fill="#D39BE4"></path>
                        <path d="M38.6691237,1.31662307 L38.7121212,18.1229294" id="Line-2" stroke-linecap="round"></path>
                        <path d="M68.219697,18.25 L68.219697,16.5333866 L57.3718389,5.99324324 L49.8484848,5.99324324 C48.7815711,5.99324324 47.9166667,6.8581477 47.9166667,7.92506143 L47.9166667,16.3181818 C47.9166667,17.3850955 48.7815711,18.25 49.8484848,18.25 L68.219697,18.25 Z" id="Rectangle" fill="#FFFFFF"></path>
                        <g id="Group-28" transform="translate(15.378788, 24.243243)" stroke-linecap="round">
                            <ellipse id="Oval" fill="#FFFFFF" cx="6.89393939" cy="6.85135135" rx="6.89393939" ry="6.85135135"></ellipse>
                            <path d="M6.89393939,7.04987915 L7.42424242,7.04987915" id="Line-3"></path>
                        </g>
                        <ellipse id="Oval" fill="#FFFFFF" stroke-linecap="round" cx="54.6212121" cy="31.0945946" rx="6.89393939" ry="6.85135135"></ellipse>
                        <path d="M54.0909091,31.2931224 L54.6212121,31.2931224" id="Line-3" stroke-linecap="round"></path>
                        <path d="M44.5454545,22.86069 L46.6666667,22.86069" id="Line-3" stroke-linecap="round"></path>
                        <path d="M3.71212121,18.6444737 L4.24242424,18.6444737" id="Line-3" stroke-linecap="round"></path>
                        <path d="M2.12121212,22.86069 L4.24242424,22.86069" id="Line-3" stroke-linecap="round"></path>
                        <path d="M0,27.0769062 L4.24242424,27.0769062" id="Line-3" stroke-linecap="round"></path>
                        <path d="M0,37.9459459 L53.5606061,37.9459459" id="Line-3" stroke-linecap="round"></path>
                    </g>
                    <g id="Group-9" transform="translate(2.860707, 0.555556)">
                        <path d="M14.2702703,28.1842818 C22.1515759,28.1842818 28.5405405,21.8750678 28.5405405,14.0921409 C28.5405405,6.30921409 22.1515759,-4.61852778e-14 14.2702703,-4.61852778e-14 C6.38896466,-4.61852778e-14 -2.94875235e-13,6.30921409 -2.94875235e-13,14.0921409 C0.00905613306,21.8712737 6.39280665,28.1753388 14.2702703,28.1842818" id="Path" fill="#782A90"></path>
                        <path d="M14.2702703,2.16802168 C20.9391518,2.16802168 26.3451143,7.50650407 26.3451143,14.0921409 C26.3451143,20.6777778 20.9391518,26.0162602 14.2702703,26.0162602 C7.60138877,26.0162602 2.1954262,20.6777778 2.1954262,14.0921409 C2.20352183,7.5097561 7.60468191,2.17601626 14.2702703,2.16802168" id="Path" fill="#FFFFFF"></path>
                        <g id="Group-36" transform="translate(6.723493, 5.592138)" stroke="#782A90" stroke-width="1.36492684">
                            <g id="Group-35">
                                <path d="M10.6800624,5.95413649 L3.77133056,12.8014388 C3.66361746,12.9082621 3.60324324,13.0530278 3.60324324,13.2039813 L3.60255717,14.4633545 L1.04008316,15.7334713 L0,14.7033161 L1.28158004,12.1630145 L2.55218295,12.1622666 C2.70449064,12.1622666 2.85130977,12.1024292 2.95902287,11.9957418 L9.86706861,5.14905149 L10.6800624,5.95413649 Z" id="Fill-1"></path>
                                <g id="Group-5" transform="translate(5.762994, 0.000000)">
                                    <g id="Group-30">
                                        <path d="M5.13188724,8.7785126 L9.64048379,4.42477259 C10.2585312,3.81221862 10.2586729,2.8191763 9.64062547,2.20662233 L7.96216416,0.543079854 C7.34411674,-0.0694741102 6.3421687,-0.0693336914 5.72412129,0.543220273 L1.26722003,4.84700372 C0.616495308,5.47537265 0.59837236,6.51228294 1.2267413,7.16300766 C1.23505995,7.17162228 1.24347284,7.1801454 1.25197844,7.1885755 L2.8411154,8.76360657 C3.47366465,9.39054103 4.49123298,9.39716234 5.13188724,8.7785126 Z" id="Fill-3" fill="#D39BE4"></path>
                                        <path d="M3.43035343,6.50406504 L7.40956341,2.57452575" id="Fill-3" stroke-linecap="round"></path>
                                    </g>
                                </g>
                            </g>
                        </g>
                        <path d="M19.6537249,15.7694089 C19.2805938,15.6963044 18.8978129,15.6859801 18.5210631,15.7391903 L12.3286159,9.62358847 C12.4793962,8.58682302 12.1264094,7.54084505 11.3760864,6.80070673 C10.5811725,6.01486322 9.44087123,5.67336477 8.33760158,5.89093105 C8.15505687,5.92670897 8.03680489,6.10138939 8.07259009,6.2816688 C8.08549689,6.34639467 8.11762315,6.40556126 8.16510889,6.45202094 L9.75167973,8.01937967 L8.98973651,9.14831 L7.84621857,9.90119494 L6.25960753,8.334273 C6.12812709,8.20398738 5.91462216,8.20398738 5.78314172,8.33387591 C5.73609826,8.38073268 5.703972,8.43989927 5.6910652,8.50462514 C5.32838828,10.3066251 6.51332055,12.0574002 8.33796345,12.4155765 C8.71109448,12.4886413 9.09427754,12.4989657 9.47062521,12.4461525 L15.6630724,18.5617146 C15.4005136,20.3804321 16.680337,22.0652901 18.5218673,22.3245907 C18.8982149,22.3773641 19.2809959,22.3670397 19.6537249,22.2940147 C19.8362696,22.2582368 19.9548834,22.0831592 19.9186962,21.9028798 C19.9058698,21.8385511 19.8737033,21.7793845 19.8266598,21.7329248 L18.2396065,20.1656058 L19.001992,19.0362783 L20.1451079,18.2837508 L21.7320808,19.8511095 C21.8635612,19.9809583 22.0771064,19.9809583 22.2085466,19.8511095 C22.2555901,19.804213 22.2877967,19.7450862 22.3006231,19.6807574 C22.6633403,17.8787575 21.4779657,16.1275852 19.6537249,15.7694089 Z" id="Stroke-1" stroke="#782A90" stroke-width="1.36492684" fill="#FFFFFF"></path>
                    </g>
                </g>
            </g>
        </g>
    </g>
</svg>