<?xml version="1.0" encoding="UTF-8"?>
<svg width="74px" height="70px" viewBox="0 0 74 70" version="1.1" xmlns="http://www.w3.org/2000/svg" xmlns:xlink="http://www.w3.org/1999/xlink">
    <!-- Generator: sketchtool 54.1 (76490) - https://sketchapp.com -->
    <title>E77C79CC-0317-42FB-9312-4556C79EC395</title>
    <desc>Created with sketchtool.</desc>
    <g id="Page-1" stroke="none" stroke-width="1" fill="none" fill-rule="evenodd">
        <g id="Homepage/1" transform="translate(-159.000000, -590.000000)" fill-rule="nonzero" stroke="#782A90" stroke-width="2.5">
            <g id="Group-22" transform="translate(160.000000, 592.000000)">
                <g id="ico/guarantee-free-in-home-trials-">
                    <polygon id="Path" fill="#FFFFFF" stroke-linecap="round" stroke-linejoin="round" points="4.01242331 31 0.95 25.0871784 36.0892302 0 70.95 25.0871784 67.258882 31 35.95 8.54616286"></polygon>
                    <polygon id="Path" fill="#FFFFFF" stroke-linecap="round" stroke-linejoin="round" points="48.95 8.88706776 48.95 4 57.95 4 57.95 15"></polygon>
                    <polyline id="Path" stroke-linecap="round" stroke-linejoin="round" points="8.95 29 8.95 64 19.95 64"></polyline>
                    <polyline id="Path" stroke-linecap="round" stroke-linejoin="round" points="52.95 64 62.95 64 62.95 29"></polyline>
                    <g id="Scoote4r" transform="translate(24.950000, 32.000000)">
                        <path d="M12.2622639,13.3379161 L12.2622639,17.9475189" id="Path-11" stroke-linecap="round"></path>
                        <rect id="Rectangle" x="1.26837822" y="26.1436921" width="3.78618421" height="8.36456401" rx="1.89309211"></rect>
                        <rect id="Rectangle" x="19.2289045" y="26.1436921" width="3.78618421" height="8.36456401" rx="1.89309211"></rect>
                        <path d="M23.8384538,2.47923125 L19.7749572,2.47923125" id="Path-10" stroke-linecap="round" transform="translate(21.806705, 2.479231) scale(-1, 1) translate(-21.806705, -2.479231) "></path>
                        <path d="M4.9587732,2.47923125 L0.916404535,2.47923125" id="Path-10" stroke-linecap="round" transform="translate(2.937589, 2.479231) scale(-1, 1) translate(-2.937589, -2.479231) "></path>
                        <path d="M15.6450927,26.1049031 L15.6450927,29.0804833 C15.6450927,29.7472209 14.5174579,30.2877186 13.1264498,30.2877186 L11.4473546,30.2877186 C10.0563466,30.2877186 8.92871179,29.7472209 8.92871179,29.0804833 L8.92871179,26.1037331 C8.92871179,24.2763203 7.44730104,22.7949095 5.61988826,22.7949095 C5.60017048,22.7949095 5.58045309,22.7950858 5.56073846,22.7954383 L0.0183782196,22.8945315 L0.0183782196,22.8945315 C0.0183782196,21.407202 0.978497175,20.0899494 2.3944296,19.6346646 L6.19417926,18.4128774 C6.38911221,18.3501979 6.5910534,18.3118853 6.79539797,18.2988132 L12.2869022,17.9475189 L17.6603291,18.2960375 C17.89006,18.3109378 18.1166001,18.3577322 18.3334328,18.4350746 L21.4318325,19.5402481 C22.9289238,20.0742482 24.045243,21.3419264 24.3856192,22.8945315 L24.3856192,22.8945315 L19.0142147,22.7966291 C17.1871054,22.7633271 15.6789441,24.2174953 15.6456421,26.0446046 C15.6452758,26.064702 15.6450927,26.0848024 15.6450927,26.1049031 Z" id="Combined-Shape" fill="#D39BE4" stroke-linecap="round" stroke-linejoin="round"></path>
                        <path d="M5.52706656,0.62057285 L18.9974613,0.62057285 L18.9974613,2.9841029 L15.7992274,4.52437516 L14.578214,10.5064428 L13.0632947,13.0001982 C12.8261003,13.3906513 12.3172914,13.514892 11.9268383,13.2776975 C11.8244409,13.2154926 11.7367782,13.1317866 11.6699138,13.0323692 L9.97106797,10.5064428 L8.45904734,4.38828201 L5.52706656,2.9841029 L5.52706656,0.62057285 Z" id="Rectangle" fill="#D39BE4" stroke-linecap="round" stroke-linejoin="round"></path>
                    </g>
                </g>
            </g>
        </g>
    </g>
</svg>