<?xml version="1.0" encoding="UTF-8"?>
<svg width="69px" height="57px" viewBox="0 0 69 57" version="1.1" xmlns="http://www.w3.org/2000/svg" xmlns:xlink="http://www.w3.org/1999/xlink">
    <!-- Generator: sketchtool 54.1 (76490) - https://sketchapp.com -->
    <title>8C1856F2-5870-4C0B-B346-77F0A44BC155</title>
    <desc>Created with sketchtool.</desc>
    <g id="Page-1" stroke="none" stroke-width="1" fill="none" fill-rule="evenodd">
        <g id="Homepage/1" transform="translate(-450.000000, -601.000000)" fill="#F7981D">
            <g id="Group-25" transform="translate(450.000000, 601.000000)">
                <g id="ico/guarantee-australian-owned-and-operated">
                    <path d="M53.9943541,28.0895988 C54.6228982,28.4604039 54.8087392,29.2341982 54.4091609,29.8177685 C53.2420956,31.5265277 51.8817773,32.9338589 50.6773821,33.6798522 C49.2259626,34.5795023 47.3234845,34.3936615 46.1533196,33.2391689 C45.0324788,32.1336412 44.98302,30.5275704 46.0296053,29.2430895 C46.2138291,29.0170499 46.3764905,28.7842479 46.519611,28.5518216 C43.2721778,29.8031167 40.7326653,29.4964292 39.097022,28.9603209 C38.252719,34.8779247 33.7428069,40.61645 31.085375,42.4176287 C28.9891048,43.83861 28.6480144,46.0144758 28.2527486,48.5342224 C27.8330902,51.2052465 27.3588521,54.2326743 24.3039981,56.085698 C23.2405671,56.7310066 22.2261907,57 21.3238039,57 C20.0415146,57 18.9838785,56.4570041 18.3263599,55.677324 C17.2056538,54.3481361 17.3588816,52.5460808 18.6902255,51.3920892 C20.2751971,50.0184447 21.2596558,47.7481557 21.2596558,45.4670969 C21.2596558,42.9160428 21.4112664,41.2367127 23.5095582,39.4237624 C24.5929343,38.4870444 24.6793187,35.0168044 24.0712588,33.8001979 C23.0132185,31.6825639 22.6846613,29.6133937 22.6352026,27.6194866 C22.5794098,27.7001345 22.5219999,27.7857916 22.4636467,27.8758317 C21.6270253,29.1589351 20.8053628,30.8651897 20.0103838,32.5152161 C19.4428882,33.6936275 18.9065234,34.8069194 18.3716409,35.7584146 C17.4061842,37.4759398 16.0590728,39.6674594 14.197698,41.3819791 C12.0534514,43.3573523 9.55248179,44.400766 6.76351924,44.4824158 C4.71091288,44.5421504 2.89212387,43.9468084 1.49919239,42.7600066 C-0.302750991,41.2249411 -0.234829409,39.645419 0.429966544,38.6792719 C1.24381263,37.4954757 2.95478961,37.0708218 4.49771458,37.6691692 C6.44183508,38.4229268 7.78422967,37.969971 8.98808579,36.1561441 C10.6690102,33.6236241 11.9045361,30.0624674 13.2121613,26.2918014 C14.311844,23.1209856 15.4489914,19.8424723 16.9671196,16.8056523 C17.2808527,16.178502 18.0821656,15.9061274 18.7570689,16.1976622 C19.4318375,16.4891969 19.7250862,17.2336874 19.4113532,17.8613386 C17.9631681,20.7577761 16.8518955,23.961903 15.7774139,27.060336 C14.4181736,30.9791487 13.1342671,34.6808131 11.2817868,37.4710559 C9.39507622,40.3136446 6.6171644,41.2049043 3.45961946,39.9810346 C3.05748057,39.8249984 2.75372017,39.9511047 2.70102704,40.0284966 C2.66787484,40.0759587 2.73943507,40.4188376 3.3206767,40.9143714 C4.19664948,41.6608656 5.32786724,42.0188973 6.67875202,41.9793247 C11.2848864,41.8438262 13.8723752,38.3520467 15.9827958,34.5985372 C16.4796745,33.7146661 16.9998676,32.6350609 17.5503827,31.4918391 C19.4577124,27.5328276 21.2591167,23.7935943 23.9596734,23.6224053 C24.3449666,23.5983612 24.7229826,23.7284748 24.9983076,23.980437 C25.2730935,24.2329 25.4183702,24.5821656 25.3973469,24.9406982 C25.2151445,28.0127078 25.3388588,30.3901935 26.5160315,32.7455135 C27.4356681,34.585889 27.5715113,39.3343484 25.3451928,41.2577513 C24.0918779,42.3407376 23.9554957,43.067696 23.9554957,45.4670969 C23.9554957,48.4648452 22.6741497,51.364163 20.5284207,53.2235734 C20.063077,53.6270635 20.3800443,54.0517174 20.4478312,54.1324905 C20.7827223,54.5300948 21.6081582,54.7302119 22.8304771,53.9886016 C24.8667769,52.7529603 25.1999161,50.6304422 25.5853441,48.1733105 C26.0068892,45.4837524 26.4854398,42.4351608 29.497169,40.3939169 C31.5239005,39.0202724 36.5944352,33.0116266 36.5397206,26.9756807 C36.5350038,26.479145 36.8349908,26.0164213 37.3224359,25.812923 C37.8083987,25.6099257 38.3643045,25.6818076 38.7606485,26.0110364 C38.9838194,26.1773414 42.3551017,28.54005 48.1367915,24.8834683 C48.5716783,24.6085891 49.1380958,24.5939372 49.5887501,24.8452732 C50.0394044,25.0967344 50.2915498,25.5688504 50.2346789,26.0546163 C50.2225501,26.1583065 49.9162291,28.621825 48.1784339,30.7546119 C47.8425994,31.1669932 47.9815422,31.3900273 48.1157682,31.5221446 C48.2737128,31.6781808 48.7001094,31.8948282 49.1822987,31.5960302 C49.5155727,31.3895264 50.7132296,30.5544948 52.1344617,28.4755567 C52.5329619,27.8914854 53.3658099,27.7187937 53.9943541,28.0895988 Z M60.9664235,3.87380828 C65.6578642,5.24494817 69.2581123,11.3743154 68.9854826,14.5740592 C68.8411492,16.2641591 67.6666719,16.9465357 66.6155046,17.0214231 C65.3399534,17.1123398 62.5850865,16.9343884 60.2241377,16.0704288 C59.9856036,15.9828932 59.9129652,16.0205874 59.8819692,16.0362411 C59.5050314,16.2313489 58.9348405,17.07427 58.3620891,19.9838566 C58.2432263,20.5879646 57.6762698,21.0111158 57.0381573,21.0111158 C56.9577026,21.0111158 56.876035,21.0043534 56.7939631,20.9905781 C56.0616498,20.8658493 55.5767652,20.2137783 55.7111259,19.5332802 C56.1895418,17.1006935 56.8680838,14.7275908 58.5727268,13.8471009 C59.1275545,13.560951 60.0350623,13.3094898 61.2116959,13.7400295 C62.9636415,14.3808298 65.1688018,14.584328 66.2795353,14.531982 C66.3648416,14.169943 66.2922032,13.1554573 65.5604291,11.6175114 C64.4581858,9.30076216 62.2760702,6.72516311 59.886147,6.19293692 C59.5923592,6.12794271 59.3307802,5.97228221 59.142783,5.75225364 C59.1270155,5.73359442 57.7503906,4.1354131 55.9563983,2.96288751 C55.4347228,3.95057408 55.0224766,5.54675172 56.6670144,6.89985853 C57.0097219,7.18162533 57.1750786,7.60515215 57.1060789,8.02542299 C56.6633757,10.7320123 55.5546637,14.1837183 52.7888808,15.2535555 C51.0452906,15.9280426 49.0580453,15.5225489 46.8840157,14.046717 C46.322315,13.665643 45.7553584,13.270919 45.2078081,12.8893442 C40.6252576,9.69748982 36.2975478,6.68258502 30.4973951,8.00638808 C28.6021943,8.4388062 26.94135,9.17791183 25.4183702,10.2672849 C24.8287732,10.6889333 23.982853,10.5867459 23.52856,10.038365 C23.0748061,9.49048514 23.1847744,8.70441837 23.7743715,8.28226909 C25.5742934,6.99515832 27.6198919,6.08386186 29.8540268,5.5736761 C36.8929397,3.96722963 42.1692607,7.64234537 46.8244495,10.8851682 C47.3656659,11.26236 47.9252104,11.6522001 48.4737041,12.024007 C49.8351006,12.9480769 50.9380177,13.2561419 51.7533462,12.9411893 C52.880521,12.5047638 53.8253587,10.7774707 54.3287061,8.26949566 C52.9272845,6.83674276 52.4671966,5.03456228 53.0336141,3.1248095 C53.4784735,1.62543441 54.3939324,0.56937243 54.4971624,0.453910655 C54.9040181,-0.00292725671 55.5999448,-0.132164298 56.1643408,0.145219467 C58.4037315,1.24398477 60.2694187,3.11992554 60.9664235,3.87380828 Z M20.1188697,13.9953728 C19.49922,13.6117943 19.3323809,12.8344936 19.7451662,12.2588127 C20.1578168,11.6835075 20.9948425,11.5274713 21.6144921,11.9114255 C22.233468,12.2950041 22.4009809,13.0723048 21.9881956,13.6474847 L21.9876565,13.6479856 C21.7280991,14.0100247 21.3007591,14.2061344 20.8653333,14.2061344 C20.6084711,14.2061344 20.3483746,14.137759 20.1188697,13.9953728 Z M56.0237808,23.423791 C56.7391137,23.6140149 57.1540552,24.3067855 56.9492124,24.9715047 L56.9492124,24.9725066 C56.779678,25.5228911 56.2406178,25.8809228 55.6542551,25.8809228 C55.5314841,25.8809228 55.4068265,25.865269 55.2831122,25.8324589 C54.5676446,25.6427359 54.1528378,24.9494643 54.3576806,24.2847451 C54.5618497,23.6193998 55.3083132,23.2339428 56.0237808,23.423791 Z" id="Combined-Shape"></path>
                </g>
            </g>
        </g>
    </g>
</svg>